<svg width="67" height="74" viewBox="0 0 67 74" fill="none" xmlns="http://www.w3.org/2000/svg">
<path fill-rule="evenodd" clip-rule="evenodd" d="M50.1422 0.515089C51.0797 0.823535 51.5897 1.83359 51.2812 2.7711L46.6491 16.8504C47.2303 21.6638 47.43 25.3113 47.1032 29.3773L47.1027 29.3905L46.163 52.3481C46.1314 53.1197 45.7359 53.7905 45.1486 54.2018C50.8902 53.6939 55.906 53.9639 58.6295 54.7661C61.0857 50.4926 62.4904 45.5379 62.4904 40.2552C62.4904 29.9398 57.1346 20.8753 49.052 15.6909L51.6485 12.4094C60.6899 18.37 66.6564 28.6158 66.6564 40.2552C66.6564 58.6618 51.7349 73.5834 33.3282 73.5834C14.9215 73.5834 0 58.6618 0 40.2552C0 23.983 11.6615 10.4346 27.0831 7.51111L28.6527 11.4658C14.7695 13.7031 4.16603 25.7409 4.16603 40.2552C4.16603 49.9736 8.91989 58.5817 16.2291 63.8809C18.7035 61.9561 26.7105 58.9614 32.0358 57.0932C30.9209 56.7053 30.2417 55.5398 30.4918 54.3543L35.2212 31.9312C35.2248 31.8722 35.2295 31.813 35.2356 31.7537C34.5441 31.8411 33.8325 31.7236 33.194 31.4007L33.1508 31.3789C31.9489 30.7713 31.1911 29.539 31.1911 28.1922V20.8658C31.1911 18.9471 32.7044 17.3818 34.6026 17.2984C34.6044 17.2367 34.6078 17.1752 34.6126 17.114L28.8096 6.17617C28.3471 5.30433 28.6789 4.22258 29.5507 3.76002C30.4225 3.29747 31.5043 3.62927 31.9668 4.50111L36.2967 12.6622C36.555 13.1491 37.0084 13.5022 37.5402 13.6471C37.659 13.6795 37.7705 13.7105 37.8748 13.7402C37.9876 13.7296 38.1022 13.7241 38.2184 13.7241H43.1276C43.2815 13.7241 43.4334 13.7339 43.5826 13.753C43.817 13.583 44.0244 13.3921 44.105 13.1469L47.8862 1.65412C48.1946 0.716606 49.2047 0.206643 50.1422 0.515089ZM34.8255 56.1312C36.1794 55.6723 37.0234 55.3981 37.0234 55.3981C38.9859 54.9896 40.9469 54.6738 42.8536 54.4425C41.9682 54.0664 41.3641 53.1715 41.4058 52.1534L42.0645 36.062L39.3038 36.2717C39.259 36.2751 39.2144 36.2777 39.17 36.2795L38.5734 39.108L35.1505 55.3369C35.0891 55.6278 34.9771 55.895 34.8255 56.1312ZM19.3454 65.8527C23.4969 68.1253 28.2617 69.4174 33.3282 69.4174C41.7022 69.4174 49.2518 65.8878 54.5705 60.2352C53.4458 57.1621 44.9943 56.3513 35.3075 58.4508C27.6934 60.1011 21.5186 63.0722 19.3454 65.8527ZM44.636 8.1175C44.636 10.4183 42.7709 12.2835 40.47 12.2835C38.1692 12.2835 36.304 10.4183 36.304 8.1175C36.304 5.81667 38.1692 3.95147 40.47 3.95147C42.7709 3.95147 44.636 5.81667 44.636 8.1175Z" fill="url(#paint0_linear_169_177)"/>
<defs>
<linearGradient id="paint0_linear_169_177" x1="33.3282" y1="0.425093" x2="33.3282" y2="73.5834" gradientUnits="userSpaceOnUse">
<stop stop-color="#F2F4F7"/>
<stop offset="1" stop-color="#AAB5C6"/>
</linearGradient>
</defs>
</svg>
